<svg xmlns="http://www.w3.org/2000/svg" xmlns:xlink="http://www.w3.org/1999/xlink" width="1572" height="1572" viewBox="0 0 1572 1572" fill="none">
<path d="M1572 786C1572 798.863 1571.68 811.719 1571.05 824.567C1570.42 837.415 1569.48 850.24 1568.22 863.041C1566.95 875.843 1565.38 888.606 1563.49 901.33C1561.6 914.055 1559.41 926.725 1556.9 939.341C1554.39 951.957 1551.57 964.504 1548.44 976.982C1545.32 989.46 1541.89 1001.85 1538.15 1014.16C1534.42 1026.47 1530.38 1038.69 1526.05 1050.8C1521.72 1062.91 1517.09 1074.9 1512.17 1086.79C1507.24 1098.68 1502.03 1110.43 1496.54 1122.06C1491.04 1133.69 1485.26 1145.17 1479.19 1156.52C1473.12 1167.86 1466.78 1179.05 1460.17 1190.08C1453.56 1201.11 1446.68 1211.98 1439.53 1222.68C1432.38 1233.37 1424.98 1243.89 1417.32 1254.22C1409.66 1264.55 1401.75 1274.69 1393.59 1284.63C1385.43 1294.58 1377.03 1304.32 1368.39 1313.85C1359.75 1323.38 1350.88 1332.69 1341.79 1341.79C1332.69 1350.88 1323.38 1359.75 1313.85 1368.39C1304.32 1377.03 1294.58 1385.43 1284.63 1393.59C1274.69 1401.75 1264.55 1409.66 1254.22 1417.32C1243.89 1424.98 1233.37 1432.38 1222.68 1439.53C1211.98 1446.68 1201.11 1453.56 1190.08 1460.17C1179.05 1466.78 1167.86 1473.12 1156.52 1479.19C1145.17 1485.26 1133.69 1491.04 1122.06 1496.54C1110.43 1502.04 1098.68 1507.25 1086.79 1512.17C1074.9 1517.09 1062.91 1521.72 1050.8 1526.05C1038.69 1530.38 1026.47 1534.42 1014.16 1538.15C1001.85 1541.89 989.46 1545.32 976.982 1548.44C964.504 1551.57 951.957 1554.39 939.341 1556.9C926.725 1559.41 914.055 1561.6 901.33 1563.49C888.606 1565.38 875.843 1566.95 863.041 1568.22C850.24 1569.48 837.415 1570.42 824.567 1571.05C811.719 1571.68 798.863 1572 786 1572C773.137 1572 760.281 1571.68 747.433 1571.05C734.585 1570.42 721.76 1569.48 708.958 1568.22C696.157 1566.95 683.394 1565.38 670.67 1563.49C657.945 1561.6 645.275 1559.41 632.659 1556.9C620.042 1554.39 607.495 1551.57 595.018 1548.44C582.54 1545.32 570.146 1541.89 557.836 1538.15C545.527 1534.42 533.316 1530.38 521.205 1526.05C509.093 1521.72 497.095 1517.09 485.211 1512.17C473.326 1507.24 461.57 1502.03 449.942 1496.54C438.313 1491.04 426.827 1485.26 415.482 1479.19C404.137 1473.12 392.948 1466.78 381.915 1460.17C370.882 1453.56 360.017 1446.68 349.322 1439.53C338.626 1432.38 328.112 1424.98 317.78 1417.32C307.448 1409.66 297.31 1401.75 287.367 1393.59C277.423 1385.43 267.686 1377.03 258.155 1368.39C248.624 1359.75 239.31 1350.88 230.214 1341.79C221.118 1332.69 212.251 1323.38 203.612 1313.85C194.974 1304.32 186.575 1294.58 178.414 1284.63C170.253 1274.69 162.342 1264.55 154.679 1254.22C147.016 1243.89 139.612 1233.37 132.465 1222.68C125.318 1211.98 118.438 1201.11 111.825 1190.08C105.212 1179.05 98.874 1167.86 92.8099 1156.52C86.7461 1145.17 80.9643 1133.69 75.4644 1122.06C69.9645 1110.43 64.7533 1098.68 59.8307 1086.79C54.908 1074.9 50.2799 1062.91 45.9464 1050.8C41.6128 1038.69 37.579 1026.47 33.8449 1014.16C30.1108 1001.85 26.681 989.46 23.5554 976.982C20.4299 964.504 17.6123 951.957 15.1028 939.341C12.5933 926.725 10.3948 914.055 8.50726 901.33C6.6198 888.606 5.04565 875.843 3.7848 863.041C2.52396 850.24 1.57795 837.415 0.946771 824.567C0.31559 811.719 0 798.863 0 786C0 773.137 0.31559 760.281 0.946771 747.433C1.57795 734.585 2.52396 721.76 3.7848 708.958C5.04565 696.157 6.6198 683.394 8.50726 670.67C10.3948 657.945 12.5933 645.275 15.1028 632.659C17.6123 620.042 20.4299 607.495 23.5554 595.018C26.681 582.54 30.1108 570.146 33.8449 557.836C37.579 545.527 41.6128 533.316 45.9464 521.205C50.2799 509.093 54.908 497.095 59.8307 485.211C64.7533 473.326 69.9645 461.57 75.4644 449.942C80.9643 438.313 86.7461 426.827 92.8099 415.482C98.874 404.137 105.212 392.948 111.825 381.915C118.438 370.882 125.318 360.017 132.465 349.322C139.612 338.626 147.016 328.112 154.679 317.78C162.342 307.448 170.253 297.31 178.414 287.367C186.575 277.423 194.974 267.686 203.612 258.155C212.251 248.624 221.118 239.31 230.214 230.214C239.31 221.118 248.624 212.251 258.155 203.612C267.686 194.974 277.423 186.575 287.367 178.414C297.31 170.253 307.448 162.342 317.78 154.679C328.112 147.016 338.626 139.612 349.322 132.465C360.017 125.318 370.882 118.438 381.915 111.825C392.948 105.212 404.137 98.874 415.482 92.8099C426.827 86.7461 438.313 80.9643 449.942 75.4644C461.57 69.9645 473.326 64.7533 485.211 59.8307C497.095 54.908 509.093 50.2799 521.205 45.9464C533.316 41.6128 545.527 37.579 557.836 33.8449C570.146 30.1108 582.54 26.681 595.018 23.5554C607.495 20.4299 620.042 17.6123 632.659 15.1028C645.275 12.5933 657.945 10.3948 670.67 8.50726C683.394 6.6198 696.157 5.04565 708.959 3.7848C721.76 2.52396 734.585 1.57795 747.433 0.946771C760.281 0.31559 773.137 0 786 0C798.863 0 811.719 0.31559 824.567 0.946771C837.415 1.57795 850.24 2.52396 863.041 3.7848C875.843 5.04565 888.606 6.6198 901.33 8.50726C914.055 10.3948 926.725 12.5933 939.341 15.1028C951.957 17.6123 964.504 20.4299 976.982 23.5554C989.46 26.681 1001.85 30.1108 1014.16 33.8449C1026.47 37.579 1038.69 41.6128 1050.8 45.9464C1062.91 50.2799 1074.9 54.908 1086.79 59.8307C1098.68 64.7533 1110.43 69.9645 1122.06 75.4644C1133.69 80.9643 1145.17 86.7461 1156.52 92.8099C1167.86 98.874 1179.05 105.212 1190.08 111.825C1201.11 118.438 1211.98 125.318 1222.68 132.465C1233.37 139.612 1243.89 147.016 1254.22 154.679C1264.55 162.342 1274.69 170.253 1284.63 178.414C1294.58 186.575 1304.32 194.974 1313.85 203.612C1323.38 212.251 1332.69 221.118 1341.79 230.214C1350.88 239.31 1359.75 248.624 1368.39 258.155C1377.03 267.686 1385.43 277.423 1393.59 287.367C1401.75 297.31 1409.66 307.448 1417.32 317.78C1424.98 328.112 1432.38 338.626 1439.53 349.322C1446.68 360.017 1453.56 370.882 1460.17 381.915C1466.78 392.948 1473.12 404.137 1479.19 415.482C1485.26 426.827 1491.04 438.313 1496.54 449.942C1502.04 461.57 1507.25 473.326 1512.17 485.211C1517.09 497.095 1521.72 509.093 1526.05 521.205C1530.38 533.316 1534.42 545.527 1538.15 557.836C1541.89 570.146 1545.32 582.54 1548.44 595.018C1551.57 607.495 1554.39 620.042 1556.9 632.659C1559.41 645.275 1561.6 657.945 1563.49 670.67C1565.38 683.394 1566.95 696.157 1568.22 708.959C1569.48 721.76 1570.42 734.585 1571.05 747.433C1571.68 760.281 1572 773.137 1572 786Z"   fill="url(#linear_0)" >
</path>
<path d="M1500 778C1500 789.571 1499.71 801.134 1499.15 812.691C1498.58 824.247 1497.73 835.783 1496.59 847.298C1495.45 858.812 1494.04 870.293 1492.35 881.738C1490.65 893.184 1488.67 904.581 1486.41 915.929C1484.16 927.277 1481.62 938.563 1478.81 949.787C1476 961.01 1472.91 972.158 1469.55 983.231C1466.2 994.304 1462.57 1005.29 1458.67 1016.18C1454.78 1027.07 1450.61 1037.87 1446.18 1048.56C1441.76 1059.25 1437.07 1069.82 1432.12 1080.28C1427.18 1090.74 1421.97 1101.08 1416.51 1111.28C1411.07 1121.48 1405.36 1131.55 1399.41 1141.47C1393.47 1151.4 1387.28 1161.17 1380.85 1170.79C1374.42 1180.41 1367.76 1189.87 1360.87 1199.16C1353.97 1208.45 1346.85 1217.57 1339.51 1226.52C1332.18 1235.46 1324.62 1244.22 1316.86 1252.79C1309.09 1261.37 1301.11 1269.75 1292.93 1277.93C1284.75 1286.11 1276.37 1294.09 1267.79 1301.86C1259.22 1309.62 1250.46 1317.18 1241.52 1324.51C1232.57 1331.85 1223.45 1338.97 1214.16 1345.87C1204.87 1352.76 1195.41 1359.42 1185.79 1365.85C1176.17 1372.28 1166.4 1378.47 1156.47 1384.41C1146.55 1390.36 1136.48 1396.07 1126.28 1401.51C1116.08 1406.97 1105.74 1412.18 1095.28 1417.12C1084.82 1422.07 1074.25 1426.76 1063.56 1431.18C1052.87 1435.61 1042.07 1439.78 1031.18 1443.67C1020.29 1447.57 1009.3 1451.2 998.231 1454.55C987.158 1457.91 976.01 1461 964.787 1463.81C953.563 1466.62 942.277 1469.16 930.929 1471.41C919.581 1473.67 908.184 1475.65 896.738 1477.35C885.293 1479.04 873.812 1480.45 862.298 1481.59C850.783 1482.73 839.247 1483.58 827.691 1484.15C816.134 1484.71 804.571 1485 793 1485C781.429 1485 769.866 1484.71 758.309 1484.15C746.753 1483.58 735.217 1482.73 723.702 1481.59C712.188 1480.45 700.707 1479.04 689.262 1477.35C677.816 1475.65 666.419 1473.67 655.071 1471.41C643.723 1469.16 632.437 1466.62 621.213 1463.81C609.99 1461 598.842 1457.91 587.769 1454.55C576.696 1451.2 565.713 1447.57 554.819 1443.67C543.925 1439.78 533.133 1435.61 522.443 1431.18C511.754 1426.76 501.178 1422.07 490.719 1417.12C480.259 1412.18 469.927 1406.97 459.723 1401.51C449.518 1396.07 439.454 1390.36 429.529 1384.41C419.605 1378.47 409.833 1372.28 400.212 1365.85C390.592 1359.42 381.134 1352.76 371.84 1345.87C362.547 1338.97 353.429 1331.85 344.484 1324.51C335.539 1317.18 326.781 1309.62 318.208 1301.86C309.635 1294.09 301.256 1286.11 293.075 1277.93C284.894 1269.75 276.918 1261.37 269.148 1252.79C261.377 1244.22 253.822 1235.46 246.482 1226.52C239.142 1217.57 232.025 1208.45 225.132 1199.16C218.24 1189.87 211.579 1180.41 205.151 1170.79C198.723 1161.17 192.534 1151.4 186.586 1141.47C180.637 1131.55 174.936 1121.48 169.481 1111.28C164.027 1101.08 158.826 1090.74 153.879 1080.28C148.933 1069.82 144.245 1059.25 139.817 1048.56C135.389 1037.87 131.226 1027.07 127.328 1016.18C123.43 1005.29 119.802 994.304 116.443 983.231C113.084 972.158 109.999 961.01 107.187 949.787C104.377 938.563 101.842 927.277 99.5849 915.929C97.3274 904.581 95.3497 893.184 93.6518 881.738C91.9546 870.293 90.5389 858.812 89.4047 847.298C88.2705 835.783 87.4195 824.247 86.8517 812.691C86.2839 801.134 86 789.571 86 778C86 766.429 86.2839 754.866 86.8517 743.309C87.4195 731.753 88.2705 720.217 89.4047 708.702C90.5389 697.188 91.9546 685.707 93.6518 674.262C95.3497 662.816 97.3274 651.419 99.5849 640.071C101.842 628.723 104.377 617.437 107.187 606.213C109.999 594.99 113.084 583.842 116.443 572.769C119.802 561.696 123.43 550.713 127.328 539.819C131.226 528.925 135.389 518.133 139.817 507.443C144.245 496.754 148.933 486.178 153.879 475.719C158.826 465.259 164.027 454.927 169.481 444.723C174.936 434.518 180.637 424.454 186.586 414.529C192.534 404.605 198.723 394.833 205.151 385.212C211.579 375.592 218.24 366.134 225.132 356.84C232.025 347.547 239.142 338.429 246.482 329.484C253.822 320.539 261.377 311.781 269.148 303.208C276.918 294.635 284.894 286.256 293.075 278.075C301.256 269.894 309.635 261.918 318.208 254.148C326.781 246.377 335.539 238.822 344.484 231.482C353.429 224.142 362.547 217.025 371.84 210.132C381.134 203.24 390.592 196.579 400.212 190.151C409.833 183.723 419.605 177.534 429.529 171.586C439.454 165.637 449.518 159.936 459.723 154.481C469.927 149.027 480.259 143.826 490.718 138.879C501.178 133.933 511.754 129.245 522.443 124.817C533.133 120.389 543.925 116.226 554.819 112.328C565.713 108.43 576.696 104.802 587.769 101.443C598.841 98.0843 609.989 94.999 621.213 92.1874C632.437 89.3766 643.723 86.8423 655.071 84.5849C666.419 82.3275 677.816 80.35 689.262 78.6522C700.707 76.9545 712.188 75.5385 723.702 74.4044C735.217 73.2703 746.753 72.4194 758.309 71.8516C769.866 71.2839 781.429 71 793 71C804.571 71 816.134 71.2839 827.691 71.8516C839.247 72.4194 850.783 73.2703 862.298 74.4044C873.812 75.5385 885.293 76.9545 896.738 78.6522C908.184 80.35 919.581 82.3275 930.929 84.5849C942.277 86.8423 953.563 89.3766 964.787 92.1874C976.01 94.999 987.158 98.0843 998.231 101.443C1009.3 104.802 1020.29 108.43 1031.18 112.328C1042.07 116.226 1052.87 120.389 1063.56 124.817C1074.25 129.245 1084.82 133.933 1095.28 138.879C1105.74 143.826 1116.08 149.027 1126.28 154.481C1136.48 159.936 1146.55 165.637 1156.47 171.586C1166.4 177.534 1176.17 183.723 1185.79 190.151C1195.41 196.579 1204.87 203.24 1214.16 210.132C1223.45 217.025 1232.57 224.142 1241.52 231.482C1250.46 238.822 1259.22 246.377 1267.79 254.148C1276.37 261.918 1284.75 269.894 1292.93 278.075C1301.11 286.256 1309.09 294.635 1316.86 303.208C1324.62 311.781 1332.18 320.539 1339.51 329.484C1346.85 338.429 1353.97 347.547 1360.87 356.84C1367.76 366.134 1374.42 375.592 1380.85 385.212C1387.28 394.833 1393.47 404.605 1399.41 414.529C1405.36 424.454 1411.07 434.518 1416.51 444.723C1421.97 454.927 1427.18 465.259 1432.12 475.718C1437.07 486.178 1441.76 496.754 1446.18 507.443C1450.61 518.133 1454.78 528.925 1458.67 539.819C1462.57 550.713 1466.2 561.696 1469.55 572.769C1472.91 583.841 1476 594.989 1478.81 606.213C1481.62 617.437 1484.16 628.723 1486.41 640.071C1488.67 651.419 1490.65 662.816 1492.35 674.262C1494.04 685.707 1495.45 697.188 1496.59 708.702C1497.73 720.217 1498.58 731.753 1499.15 743.309C1499.71 754.866 1500 766.429 1500 778Z"   fill="url(#linear_1)" >
</path>
<ellipse cx="817.421875" cy="759.1771240234375" transform="rotate(-6.470529095078113e-7 308.421875 250.1796875)" rx="509" ry="508.9974365234375"   fill="#E6F8FC" >
</ellipse>
<path d="M1321.41 832.962C1324.92 808.811 1326.74 784.112 1326.74 758.988C1326.74 477.599 1098.63 249.489 817.242 249.489C535.853 249.489 307.742 477.599 307.742 758.988C307.742 1040.38 535.853 1268.49 817.242 1268.49C876.854 1268.49 934.074 1258.25 987.242 1239.44C949.387 1193.19 926.675 1134.06 926.675 1069.63C926.675 921.464 1046.79 801.35 1194.96 801.35C1240.68 801.35 1283.73 812.789 1321.41 832.962Z" fill-rule="evenodd"  fill="#FFFFFF" >
</path>
<ellipse cx="824.4732055664062" cy="856.68408203125" transform="rotate(-6.470527338009021e-7 783.35546875 815.56640625)" rx="41.11773681640625" ry="41.11767578125"   fill="#6969FF" >
</ellipse>
<path d="M839.921 319.204C890.088 321.769 939.505 332.898 986.016 352.164C1039.47 374.303 1088.03 406.754 1128.94 447.662C1169.85 488.571 1202.3 537.136 1224.44 590.586C1246.58 644.035 1257.97 701.322 1257.97 759.175L817.426 759.175L817.426 759.083C698.76 755.664 603.613 658.395 603.613 538.902C603.613 419.41 698.76 322.14 817.426 318.722L817.426 318.629C818.682 318.629 819.938 318.634 821.194 318.645C822.09 318.634 822.988 318.629 823.887 318.629C829.279 318.629 834.626 318.823 839.921 319.204Z" fill-rule="evenodd"  fill="#6969FF" >
</path>
<path    stroke="rgba(83, 82, 237, 1)" stroke-width="14"  stroke-linecap="round"  d="M208.005 764.497L335.094 751.004C335.094 751.004 355.03 747.682 374.552 753.911C394.075 760.141 412.349 777.586 412.349 777.586L592.612 957.849">
</path>
<rect  x="623.1484375" y="996.865234375" width="12.9227294921875" height="18.796630859375" transform="rotate(-45.000014489035365 623.1484375 996.865234375)" rx="4"    fill="#6363FF" >
</rect>
<rect  x="572.66796875" y="973.62890625" width="51.6907958984375" height="61.089111328125" transform="rotate(-45 572.66796875 973.62890625)" rx="5"    fill="#000000" >
</rect>
<ellipse cx="158.109375" cy="847.4295654296875" transform="rotate(-45 70 759.3203125)" rx="88.109375" ry="88.1092529296875"   fill="#FFFFFF" >
</ellipse>
<defs>
<linearGradient id="linear_0" x1="-14.254%" y1="55.703%" x2="100%" y2="50.024%" gradientUnits="objectBoundingBox">
<stop offset="0" stop-color="#000000"  />
<stop offset="1" stop-color="#5352ED"  />
</linearGradient>
<linearGradient id="linear_1" x1="100%" y1="50.072%" x2="-4.233%" y2="46.78%" gradientUnits="objectBoundingBox">
<stop offset="0" stop-color="#4D4DFF"  />
<stop offset="1" stop-color="#000000"  />
</linearGradient>
</defs>
</svg>
